<mxfile host="app.diagrams.net" agent="Mozilla/5.0 (Windows NT 10.0; Win64; x64) AppleWebKit/537.36 (KHTML, like Gecko) Chrome/133.0.0.0 Safari/537.36" version="26.0.16">
  <diagram name="Page-1" id="lMZskVyY7BQBCXd3K4ke">
    <mxGraphModel grid="1" page="1" gridSize="10" guides="1" tooltips="1" connect="1" arrows="1" fold="1" pageScale="1" pageWidth="850" pageHeight="1100" math="0" shadow="0">
      <root>
        <mxCell id="0" />
        <mxCell id="1" parent="0" />
        <mxCell id="IfGX-FV8qgjRQqrxb4GX-25" value="" style="shape=image;verticalLabelPosition=bottom;labelBackgroundColor=default;verticalAlign=top;aspect=fixed;imageAspect=0;image=data:image/png,iVBORw0KGgoAAAANSUhEUgAABM4AAAFsCAYAAAA0ZfUXAAAAAXNSR0IArs4c6QAAAARnQU1BAACxjwv8YQUAAAAJcEhZcwAAbroAAG66AdbesRcAAEmQSURBVHhe7d13dNR1vv/x76Q3IHRIAiFICQkEhAgizdC79CIQAUGQIk0sCDYEFZQi4FIEBUR6l94EgggSCDUJJRBSKIEkkF7n94fL/WXfpsxMZpKZyfNxzp499/kZ79Xdvefsvvbz/X5VarVaAQAAAAAAAPC/LGQAAAAAAAAAwHAGAAAAAAAA5ErFo5olU2pqqt3p06dbhYeHu7dr1+6Yh4fHXfkbAAAAAACAkowbZyXMkydPKrz//vvflS9f/mnHjh0Pjx49elWdOnVuvvfeez88f/68tPw9AAAAAABAScWNsxIiKSnJ8Ztvvvlo0aJFkxMTE53kuaIoipeX1419+/Z1q1Gjxj15BgAAAAAAUNIwnJUAV69ebTBgwIAtISEhnvJMqly58qOTJ0+2qVu3bqg8AwAAAAAAKEl4VNPMLV++fGzTpk3PazKaKYqiPHr0qHKnTp0ORUdHu8gzAAAAAACAkoQbZ2bq+fPnpUeNGvXT1q1b+8szTTRq1Cjor7/+etXW1jZNngEAAAAAAJQE3DgzQ8+fPy/dsWPHw7qOZoqiKEFBQY1mzJgxV3YAAAAAAICSghtnZiYhIaFUp06dDp09e7a5PNOWSqVSHzlypEO7du2OyTMAAAAAAABzx3BmRhITE526dOlyICAgoKU805Wrq2vU1atXG5QtWzZOngEAAAAAAJgzHtU0E0lJSY7dunXbp8/RTFEUJSoqynXMmDErZAcAAAAAADB3DGdmIC0tzbZHjx57T5061Vqe6cPWrVv7b9iwYYjsAAAAAAAA5oxHNc3Au++++5/ly5ePlV2fXFxcom/fvl3L3t4+RZ4BAAAAAACYI26cmbgNGzYMMfRopiiKEh0d7fLDDz+8JzsAAAAAAIC54saZCQsODq73yiuv/J2UlOQozwzB2dk5PiwsrCYfCgAAAAAAACUBN85MVFZWluXw4cN/KarRTFEUJT4+3vnbb7/9UHYAAAAAAABzxHBmohYuXDjl/PnzTWU3tB9++OG96OhoF9kBAAAAAADMDY9qmqBbt27V9vHxuZKammonz4rCO++8s3LFihVjZAcAAAAAADAnDGcmqF+/ftu2b9/eV/aiYmVllRkcHFyvVq1at+UZAAAAAACAueBRTRNz6dKll3fs2NFH9qKUmZlp9eOPP46THQAAAAAAwJxw48zEdOvWbd/+/fu7yl7UypUrFxsVFeVqZ2eXKs8AAAAAAADMATfOTMiff/75mjGMZoqiKLGxseW2bNkyQHYAAAAAAABzwXBmQmbOnPmVbMVp+fLlY2UDAAAAAAAwFzyqaSKOHTvWrn379kdlL26XL19u6OPjc0V2AAAAAAAAU8eNMxPx6aeffimbMVixYsUY2QAAAAAAAMwBN85MwOXLlxs2atQoSHZjULp06ecxMTEVbWxs0uUZAAAAAACAKePGmQlYs2bNSNmMxfPnz0sfO3asnewAAAAAAACmjuHMyKWlpdn++uuvQ2U3Jrt3735DNgAAAAAAAFPHcGbkdu3a1Ss2Nrac7MZkz549PdVqtUp2AAAAAAAAU8ZwZuSM+THNFx48eFD13LlzzWQHAAAAAAAwZQxnRuz+/fvVjx492l52fXJ2do739/df980333y0du3at3r16rVL/kYTPK4JAAAAAADMDV/VNGJffPHFZ59//vnnsutD1apVH8ydO3fG4MGDN9ra2qa96Gq1WjVhwoSlP/7447j//SPy5+npGRIcHFxPdgAAAAAAAFPFcGbE6tevf+369eveshfW22+/vXrRokWTnZycEuXZC23btj1+4sQJP9nzExIS4lm3bt1Q2QEAAAAAAEwRj2oaqYiIiGr6Hs2srKwyV65c+c5PP/00Kr/RTFEUZcWKFWPs7OxSZc8Pj2sCAAAAAABzwnBmpA4ePNhZtsJQqVTq1atXvz169OhV8iw3tWvXvjVmzJgVsudn7969PWQDAAAAAAAwVQxnRkrfw9miRYsm+/v7r5M9P5MnT15kaWmZJXtezp8/3zQ1NdVOdgAAAAAAAFPEcGaEMjMzrY4dO9ZOdl199tlnX7z33ns/yF6QGjVq3OvTp88O2fOSnp5uc+HCBV/ZAQAAAAAATBHDmRE6e/Zs82fPnpWRXRfDhw//pTBf5hw6dOivsuUnICCgpWwAAAAAAACmiOHMCOnrMU0PD4+7P/zww3uya6Njx46HHR0dk2TPy5kzZ1rIBgAAAAAAYIoYzozQ4cOHO8qmLQsLi+xffvlleKlSpRLkmTbs7OxSO3fufFD2vPz555+vqdVqlewAAAAAAACmhuHMyKSkpNgHBQU1kl1bU6ZMWdi6detTsuuia9eu+2XLS2xsbLnw8HB32QEAAAAAAEwNw5mRCQoKapSZmWkluza8vLxuzJkz5xPZdfXqq6/+JVt+rl692kA2AAAAAAAAU8NwZmT08VXKRYsWTba1tU2TXVf16tULLlOmzDPZ88JwBgAAAAAAzAHDmZEp7HDWqVOnQx06dDgie2GoVCp106ZNz8uel2vXrtWXDQAAAAAAwNQwnBmZwgxnFhYW2fPnz58uuz40btz4omx54cYZAAAAAAAwBwxnRiQxMdEpJCTEU3ZNvfXWW2sbNGhwVXZ98PDwuCtbXkJDQ+sW9j1tAAAAAAAAxY3hzIhcvHixcXZ2tk7/nNja2qbNnj17luz6os1wlpGRYR0dHe0iOwAAAAAAgCnRaaSBYQQFBTWSTVNDhw791dXVNUp2fdFmOFMURYmMjHSTDQAAAAAAwJQwnBmRW7du1ZZNEyqVSv3+++9/J7s+ubu7h6tUKrXseYmKinKVDQAAAAAAwJQwnBmR27dv15JNE927d//d09MzRHZ9srGxSXdwcEiWPS/cOAMAAAAAAKaO4cyI3Llz5yXZNDF9+vT5shmCNsMZN84AAAAAAICpYzgzEllZWZb37t2rIXtBXn755UutWrU6LbshaDOcceMMAAAAAACYOoYzIxEREVEtIyPDWvaCDB8+/BfZDMXR0TFJtrzEx8c7ywYAAAAAAGBKGM6MhC7vN7O2ts548803f5PdULS5cZacnOwgGwAAAAAAgClhODMSurzfrFu3bvsqVKjwRHZDSU9Pt5EtLykpKfayAQAAAAAAmBKGMyOhyzvBhg0btl42Q0pMTHSSLS8MZwAAAAAAwNQxnBmJJ0+eVJAtP7a2tmmdOnU6JLshJSUlOcqWF4YzAAAAAABg6hjOjERMTExF2fLTqlWr09q8rF8fEhISSsmWF4YzAAAAAABg6hjOjIS2N866du26XzZDiomJqajNC//T0tJsZQMAAAAAADAlDGdGQtsbZ+3atTsmmyFp+/ECa2vrDNkAAAAAAABMCcOZkdBmOHN0dEzy9va+LrshhYWF1ZQtP7a2tmmyAQAAAAAAmBKGMyOgVqtVsbGx5WTPS+PGjS9aWlpmyW5IwcHB9WTLj42NTbpsAAAAAAAApoThzAgkJCSUysrKspQ9L82aNTsnm6H9+eefr8mWH26cAQAAAAAAU8dwZgS0fZF+06ZNz8tmSFlZWZbnz59vKnt+GM4AAAAAAICpYzgzAtoOZ/Xq1QuWzZCuXLnik5iY6CR7fhwcHJJlAwAAAAAAMCUMZ0YgPT3dRrb81KxZM0w2Q9q/f39X2QpSqVKlx7IBAAAAAACYEoYzI6DNjbOqVas+KOrbXDt27OgjW0EYzgAAAAAAgKljODMC2tw4K+rbZuHh4e4XL15sLHtBKleu/Eg2AAAAAAAAU8JwZgSMeTjbunVrf9k0wY0zAAAAAABg6hjOjIBKpVLLlpcqVao8lM1Q1Gq1auXKle/IrglunAEAAAAAAFOnUqvz3myOHTvWLi4urqzs0K/79+9XnzZt2vey52bIkCEbevXqtUt2Q7h69WqDL7/88lPZNfH1119/XKtWrduyAwBQ1IKCghqlpqbayZ6Tr6/vBSsrq0zZAQAA8I/k5GSHK1eu+Miek5OTU2L9+vWvya6LixcvNtbmCb3C6Nmz557WrVufkl0paDjz9fW9EBgY2ER2AAAAc+Ls7BwfHx/vLDsAAADMn7+//7q1a9e+JbvCo5oAAAAAAABA7hjOAAAAAAAAgFwwnAEAAAAAAAC5YDgDAAAAAAAAcpHvxwGio6NdiuoLBiVZRkaGdZ06dW7KnpvDhw93rF279i3Z9eXMmTMthg4d+qvs2li3bp1/q1atTssOAEBxaNeu3bGwsLCasucUGBjYpFy5crGyAwAA4B83b96s06lTp0Oy5+Tr63th69at/WXXRfPmzc8+fPiwiuyGsGTJkokTJkxYKrtS0HCGomNvb5+SmppqJ7t08+bNOoYazjIyMqx9fHyuhISEeMozbTx9+rQ8/+EDAGAsPD09Q0JDQ+vKnlNMTEzFChUqPJEdAAAA/7h27Vr9Bg0aXJU9pxYtWpwJCAhoKbsu3NzcIqOiolxlN4RVq1aNHjVq1E+yKzyqaTw0/TfrNjY26bLpy4IFC6YWdjSrWbNmGKMZAAAAAAAwBwxnRqJixYoxsuXGwsIiWzZ9iIyMdJs9e/Ys2bX1yiuv/C0bAAAAAACAKWI4MxKa3jgz1DvnpkyZsjApKclRdm35+vpekA0AAAAAAMAUMZwZCU1vnKWlpdnKVli7du3qtW3btn6y64KPAgAAAAAAAHPBcGYkNL1xpskHBLQRHh7uPnLkyDWy68LZ2TmeG2cAAAAAAMBcMJwZieK4cZaRkWE9cODAzXFxcWXlmS78/PxOWFpaZskOAAAAAABgihjOjISmN870OZx99NFH35w7d66Z7Lrq0KHDEdkAAAAAAABMFcOZkdD0xllKSoq9bLrYu3dvjwULFkyVvTDat29/VDYAAAAAAABTxXBmJFxdXaNky83Tp0/Ly6at+/fvVx8+fPgvshdGrVq1bteuXfuW7AAAAAAAAKaK4cxIuLu7h8uWmydPnlSQTRvJyckOffv23R4bG1tOnhVG3759t8sGAAAAAABgyhjOjESVKlUe2trapskuFWY4y87OtnjzzTd/u3Dhgq88K6x+/fptkw0AAAAAAMCUMZwZCZVKpa5WrVqE7FJhhrNp06Z9v3v37jdkL6waNWrc8/X1vSA7AAAAAACAKWM4MyKaPK6p63C2dOnSCYsWLZosuz7wmCYAAAAAADBHDGdGRJPhLCYmpqJsBdm7d2+PyZMnL5JdXwYNGrRJNgAAAAAAAFPHcGZENBnOwsPD3WXLT2BgYJPBgwdvzMrKspRn+tCwYcPLPKYJAAAAAADMEcOZEdFkOIuMjHTLzMy0kj03V69ebdCpU6dDSUlJjvJMX95+++3VsgEAAAAAAJgDhjMjoslwlpWVZRkREVFNdik4OLhe+/btjz59+rS8PNMXOzu71KFDh/4qOwAAAAAAgDlgODMimgxniqIod+/e9ZAtp9DQ0Lpt27Y9/vjx40ryTJ/69Omzo2zZsnGyAwAAAAAAmAOGMyPi5uYWaWFhkS27lN9wdvv27Vpt27Y9/vDhwyryTN/GjBmzQjYAAAAAAABzwXBmRKytrTOqVasWIbuU13B29+5dj7Zt2x6Pjo52kWf65uvre6F169anZAcAAAAAADAXDGdGpnbt2rdkk+7du1dDtvv371f38/M7ocn7z/Rh2rRp38sGAAAAAABgThjOjIwmw5m8cRYVFeXq5+d3Ijw83D1nNxR3d/fw/v37b5UdAAAAAADAnDCcGZk6derclE3KOZw9ePCgqp+f34mwsLCa//srw5k8efIiS0vLLNkBAAAAAADMCcOZkdHkxtnDhw+rpKam2j169Khy27Ztj9+6dau2/I2hVKhQ4cmoUaN+kh0AAAAAAMDcMJwZGU2GM7Varbpw4YJvu3btjoWEhHjKc0P64IMP5jk5OSXKDgAAAAAAYG4YzoyMh4fHXU0eg+zRo8fe69eve8tuSFWqVHk4fvz4ZbIDAAAAAACYI4YzI2NtbZ1Ro0aNe7JL8fHxzrIZ2scff/y1g4NDsuwAAAAAAADmiOHMCGnyuGZRc3NzixwzZswK2QEAAAAAAMwVw5kRMsbh7Msvv/zU1tY2TXYAAAAAAABzxXBmhIxtOGvcuPHF4cOH/yI7AAAAAACAOWM4M0J16tS5KVtxWrx48SSVSqWWHQAAAAAAwJwxnBkhY7px1r9//60tW7YMkB0AAAAAAMDcMZwZIXd393Bra+sM2Yuavb19yrx58z6QHQAAAAAAoCRgODNCiYmJTqVKlUqQvah99dVXM2vUqHFPdgAAAAAAgJKA4czIxMfHO3fo0OFIbGxsOXlWlF577bU/J0+evEh2AAAAAACAkoLhzIjExcWVbd++/dG///77FXlWlOzt7VN+/vnnERYWFtnyDAAAAAAAoKRgODMSsbGx5dq3b380MDCwiTwrarNnz55lbF/2BAAAAAAAKGoMZ0bgxWh28eLFxvKsqDVv3vzslClTFsoOAAAAAABQ0jCcFbOnT5+Wb9eu3bFLly69LM+Kmp2dXSqPaAIAAAAAAPyD4awYPXr0qHLbtm2PBwUFNZJnxWH27Nmz6tatGyo7AAAAAABAScRwVkzCw8PdW7VqdfrKlSs+8qw4NG/e/OzUqVMXyA4AAAAAAFBSMZwVg+Dg4HotW7YMuHXrVm15Vhz4iiYAAAAAAMC/qdRqtWz/Z9y4cT/evHmzjuzQXUJCQqlLly69nJGRYS3PiouXl9eNqlWrPpAdAABzcPbs2ebJyckOsufUsWPHw1lZWZayAwAA4B+JiYlO586dayZ7Ts7OzvFNmjQJlF0XAQEBLdPS0mxlN4T33nvvh8WLF0+SXSloOPP19b0QGBjYRHYAAABz4uzsHB8fH+8sOwAAAMyfv7//urVr174lu8KjmgAAAAAAAEDuGM4AAAAAAACAXDCcAQAAAAAAALnI9x1nEydOXGIsX340RWFhYTWN8R+/OnXq3PTw8LgrOwAA5iggIKBlUlKSo+w5de3adT8fBwAAAMhbYmKi05kzZ1rInpOzs3N8s2bNzsmui5MnT7ZJTU21k90QJk2atHjRokWTZVcKGs6guw8++GDe/Pnzp8te3Hr37r1zx44dfWQHAMBceXp6hoSGhtaVPaeYmJiKFSpUeCI7AAAA/nHt2rX6DRo0uCp7Ti1atDgTEBDQUnZduLm5RUZFRbnKbgirVq0aPWrUqJ9kV3hUU/+ys7Mtxo4du9wYR7M6derc/OWXX4bLDgAAAAAAgH9jONOjzMxMq6FDh/66YsWKMfKsuJUuXfr5jh07+pQuXfq5PAMAAAAAAMC/MZzpSWpqql2fPn12bNy4cbA8K242Njbpu3bt6uXt7X1dngEAAAAAACB3DGd6kJiY6NStW7d9e/fu7SHPiptKpVKvXbv2LT8/vxPyDAAAAAAAAHljOCukuLi4su3btz96/PjxtvLMGMyfP3/6oEGDNskOAAAAAACA/DGcFUJsbGw5Pz+/E+fOnWsmz4zBlClTFk6bNu172QEAAAAAAFAwhjMdvbhpdvny5YbyzBgMHDhw8/fffz9NdgAAAAAAAGiG4UwH8fHxzh06dDhy6dKll+WZMfDz8zuxbt06f5VKpZZnAAAAAAAA0AzDmZaeP39eulOnTocCAwObyDNj4OPjc2Xnzp29bWxs0uUZAAAAAAAANMdwpoWEhIRSnTt3Pnj+/Pmm8swYuLm5RR44cKBLmTJlnskzAAAAAAAAaIfhTEOJiYlOXbp0OXD27Nnm8sxY1K1bN9TFxSVadgAAAAAAAGiP4UwDSUlJjl27dt1/5syZFvLMmAQHB9eTDQAAAAAAALphOCtAWlqabY8ePfaePn26lTwzNtHR0S7Pnz8vLTsAAAAAAAC0x3CWD7VarfL391934sQJP3lmrLh1BgAAAAAAoB8MZ/n46KOPvtmyZcsA2Y0ZwxkAAAAAAIB+MJzlYcWKFWPmzZv3gezGLiQkxFM2AAAAAAAAaI/hLBcHDhzoMn78+GWymwJunAEAAAAAAOgHw5kQFBTUaMCAAVuysrIs5Vlxs7KyypRNYjgDAAAAAADQD4azHCIjI926deu2LzEx0UmeFbe6deuGbt++va/sUlhYWM20tDRb2QEAAAAAAKAdhrP/ev78eemuXbvuj46OdpFnxe2VV175OyAgoGWHDh2OWFhYZMvznLKysixv3bpVW3YAAAAAAABoh+FMUZTMzEyrfv36bbt69WoDeVbc2rdvf/T48eNtK1So8MTe3j7F3d09XP5G4nFNAAAAAACAwmM4UxTlgw8+mHfkyJEOshe3AQMGbNm3b183JyenxBfNy8vrxv/+6t8YzgAAAAAAAAqvxA9nO3bs6LNw4cIpshe3cePG/bhx48bBNjY26Tl7vXr1gnP+z7lhOAMAAAAAACi8Ej2c3b59u9bIkSPXyF7cPv/888+XLVs2Prf3mTGcAQAAAAAAFI0SO5ylpqba9evXb9uzZ8/KyLPiYmFhkb1s2bLxn3322Rfy7AVNHtW8efNmnezs7BL7zy0AAAAAAIA+lNhxZdKkSYsvX77cUPbiYmNjk75x48bB48aN+1Ge5aTJjbOUlBT78PBwd9kBAAAAAACguRI5nO3bt6/bypUr35G9uDg5OSXu27ev24ABA7bIM6lMmTLPqlat+kB2icc1AQAAAAAACqfEDWdPnz4tP2rUqJ9kLy4VKlR4cuLECb/27dsflWd50eTWGcMZAAAAAABA4ZS44ezdd9/9z8OHD6vIXhzc3d3DAwICWvr6+l6QZ/nR5D1nDGcAAAAAAACFU6KGs99+++3NrVu39pe9OHh7e18/c+ZMi7p164bKs4Jw4wwAAAAAAMDwSsxwFhMTU3HChAlLZS8Or7322p+nT59u5erqGiXPNMFwBgAAAAAAYHglZjibPn36/Li4uLKyF7Vu3brtO3r0aPuyZcvGyTNNafKoZlxcXNlHjx5Vlh0AAAAAAACaKRHD2alTp1qvXbv2LdmL2qBBgzbt2rWrl729fYo800blypUfaTK8cesMAAAAAABAd2Y/nGVmZlqNGzfuR9mLWp8+fXasX79+mJWVVaY80wWPawIAAAAAABiW2Q9nCxcunHL9+nVv2YtSly5dDmzcuHGwvkYzRcPHNRnOAAAAAAAAdGfWw9mjR48qf/nll5/KXpTatm17fMeOHX1sbGzS5VlhaHLjLCQkxFM2AAAAAAAAaMash7PZs2fPSkxMdJK9qLz22mt/7tmzp6ednV2qPCssTYYzbpwBAAAAAADozmyHs7t373qsXLnyHdmLSpMmTQL379/f1dHRMUme6YMmj2pGRka6JSQklJIdAAAAAAAABTPb4WzWrFmzMzIyrGUvCg0aNLh6+PDhjmXKlHkmz/SlevXq9zUZ5XhcEwAAAAAAQDdmOZxduXLFZ+PGjYNlLwouLi7RBw4c6FKuXLlYeaZPKpVKXbdu3VDZJR7XBAAAAAAA0I1ZDmezZs2anZ2dXeR/bXZ2dqm7du3q5erqGiXPDEGTxzUZzgAAAAAAAHRT5OOSoYWEhHju3bu3h+xFYc2aNSNfeeWVv2U3FD4QAAAAAAAAYDgqtVot2/+Jjo52SU9Pt5HdmM2YMWNucTymOW7cuB+nT58+X3ZDOnToUKexY8culz0nDw+Pu8ePH28rOwAAJUW7du2OhYWF1ZQ9p8DAwCaGfs0CAACAKbt582adTp06HZI9J19f3wtbt27tL7sumjdvfvbhw4dVZDeEJUuWTJwwYcJS2ZWChjNfX98LgYGBTWQHAAAwJ87OzvHx8fHOsgMAAMD8+fv7r1u7du1bsivm+KgmAAAAAAAAoA8MZwAAAAAAAEAuGM4AAAAAAACAXDCcAQAAAAAAALnI9+MAx44daxcXF1dWdmMTFxdXduzYscuzs7OLZAh0cXGJnj9//nQbG5t0eWYIN2/erLN169b+QUFBjeRZUbOxsUlv1qzZue7du/9es2bNMHkOAICxmTRp0uLo6GgX2XP6+eefRzg5OSXKDgAAgH/cv3+/+rRp076XPSdPT8+Q2bNnz5JdF2PGjFkRGxtbTnZD+Prrrz/+6KOPvpFdKWg4MxXz58+f/sEHH8yT3RCsrKwyz54929zX1/eCPNO3iIiIah9++OG3GzduHCzPjEGbNm1OTps27fvu3bv/rlKpTP9fSAAAs+Tp6RkSGhpaV/acYmJiKlaoUOGJ7AAAAPjHtWvX6jdo0OCq7Dm1aNHiTEBAQEvZdeHm5hYZFRXlKrshrFq1avSoUaN+kl0xl0c1169fP0w2Q5k5c+ZXhh7NsrOzLebNm/eBp6dniLGOZoqiKCdPnmzTs2fPPd7e3td///337vIcAAAAAADAlJn8cBYUFNTo6tWrDWQ3hGbNmp375JNP5siuT/fu3avx+uuv//Hhhx9+m5yc7CDPjVFwcHC9Hj167O3cufPB4ODgevIcAAAAAADAFJn8cLZ169b+shmCg4ND8vr164dZWVllyjN92blzZ++GDRtePn36dCt5ZgoOHTrUycfH58rkyZMXJSUlOcpzAAAAAAAAU2Lyw9mBAwe6yGYI33777Ye1a9e+Jbu+zJkz55O+fftuf/78eWl5ZkoyMzOtFi9ePKlx48YXAwMDm8hzAAAAAAAAU2HSw9njx48rFcWXJr28vG68++67/5FdHzIzM638/f3XzZw58yu1Wq2S56bq5s2bdZo3b3523rx5H5jTXxcAAAAAACg5THo4O3ToUKeiGGW+/fbbDy0tLbNkL6yMjAzrAQMGbCnKjxsUpYyMDOsPP/zw286dOx989uxZGXkOAAAAAABgzEx6ODt48GBn2fTNz8/vRPfu3X+XvbDS09Nt+vfvv3Xnzp295Zm5OXz4cMdWrVqdLqrPyAIAAAAAAOiDyQ5narVadeTIkQ6y65NKpVJ/991378teWGq1WuXv779u9+7db8gzc3X16tUGzZs3P3vjxg0veQYAAAAAAGCMTHY4u3z5csOYmJiKsuvTm2+++Vvjxo0vyl5YH3/88debN28eKLu5i4iIqNayZcuA8+fPN5VnAAAAAAAAxsZkhzNDjy92dnapc+fOnSF7Ya1cufKdb7/99kPZS4q4uLiyXbt23R8SEuIpzwAAAAAAAIyJyQ5nFy5c8JVNn957770fqlevfl/2wrhw4YLvxIkTl8he0jx9+rR8x44dD0dGRrrJMwAAAAAAAGNhssNZYGBgE9n0xdnZOX7GjBlzZS+MZ8+elRk4cODm9PR0G3lWEkVERFTr2LHj4adPn5aXZwAAAAAAAMbAJIeztLQ022vXrtWXXV/eeeedlWXKlHkme2GMGTNmRVhYWE3ZS7Lg4OB6Q4YM2aBWq1XyDAAAAAAAoLiZ5HB25coVH0Pd3LK2ts547733fpC9MHbv3v1GSfwYgCYOHTrUaf78+dNlBwAAAAAAKG4mOZwZ8jHN/v37b3V1dY2SXVcJCQmlJkyYsFR2/H+ffPLJnL/++utV2QEAAAAAAIqTSQ5nwcHB9WTTlylTpiyUrTBmzZo1m5fg5y8zM9Nq0KBBm549e1ZGngEAAAAAABQXkxzO7t+/X102ffDx8bni6+t7QXZdhYWF1fzxxx/HyY5/Cw8Pd//ss8++kB0AAAAAAKC4MJzl8NZbb62VrTBmzZo1OyMjw1p25G7ZsmXjr1+/7i07AAAAAABAcWA4+y8rK6vMIUOGbJBdV1evXm2wcePGwbIjb5mZmVb6/jADAAAAAACArkxuOEtJSbF/8uRJBdkLq1OnTocqV678SHZdfffdd++r1WqV7MagV69euwYPHryxZ8+ee15//fU/PDw87lpZWWXK3xWH48ePt922bVs/2QEAAAAAAIqayQ1nhrhtpiiK0rt3752y6erBgwdVN23aNEh2Q7OxsUl3cHBIll0aPnz4L7/99tubu3fvfuPEiRN+YWFhNVNSUuzv3Lnz0saNGwdPnDhxycsvv3xJ/nFF5dNPP/3SWEdHAAAAAABQcpjccBYREVFNNn3o0qXLAdl0tWzZsvHp6ek2shuCg4NDcp8+fXZs2LBhSExMTMUePXrslb+RcnuPmJWVVWbNmjXDBg0atOmHH3547+LFi43Dw8PdFyxYMLVZs2bn5O8NKTg4uN7evXt7yA4AAAAAAFCUTG44e/r0aXnZCqthw4aXXVxcomXXRXZ2tsWaNWtGyq5vrq6uUUuWLJkYExNTcfv27X3ffPPN30qXLv28QYMGV+VvpWvXrtWXLTfVq1e/P2XKlIV//fXXq3///fcrw4YNW29jY5Muf2cI8+bN+0A2AAAAAACAomRyw1lycrKDbIXVtWvX/bLp6tixY+0ePHhQVXZ9cXFxiV6yZMnEO3fuvDRhwoSl8tFMTYaz3G6cFcTX1/fCunXr/ENCQjz79++/VZ7r25kzZ1qcOXOmhewAAAAAAABFxeSGs6SkJEfZCqtt27bHZdPV+vXrh8mmDyqVSj1p0qTFLwYzW1vbNPkbRcPhLDQ0tG5mZqaV7Jrw8PC4u2XLlgGnT59uVbt27VvyXJ8WL148STYAAAAAAICiYnLDmb5vnKlUKvUrr7zyt+y6yMjIsN61a1cv2QurcuXKj/bv39910aJFk+3s7FLleU41atS45+TklCh7Tmlpaba3b9+uJbs2WrZsGRAUFNRozJgxK+SZvvz+++/dExMTnWQHAAAAAAAoCiY3nOn7xlmdOnVulilT5pnsuggICGiZkJBQSvbCaNeu3bErV674dO7c+aA8y41KpVLXr1//muySpu85y4+Dg0Py8uXLx65du/Yta2vrDHleWCkpKfZ8JAAAAAAAABQXkxvO9H3jrGnTpudl09XBgwc7y1YY3bt3/33fvn3dKlWq9Fie5UeTxzX1MZy94O/vv+7gwYOd9TVA5rR58+aBsgEAAAAAABQFkxvO9H3jzNfX94Jsujpy5EgH2XTVq1evXTt27OiT17vM8qPJcKbLBwLy07Zt2+MHDhzo4ujomCTPCuPgwYOdnz17VkZ2AAAAAAAAQzO54UzfatWqdVs2XaSkpNhfuXLFR3Zd9OzZc8/WrVv76/r4o4+PzxXZJH3eOHuhefPmZ3ft2tVLl7EvL2lpabZHjx5tLzsAAAAAAIChmdxwVqpUqQTZCqNmzZphsuni8uXLDbOysixl15aHh8fd9evXD7OyssqUZ5rS5MbZ7du3a6Wnp9vIXljt27c/umjRosmyF0ZAQEBL2QAAAAAAAAzN5Iaz0qVLP5dNVyqVSl2jRo17susiMDCwiWzasra2zti0adOgwv41litXLtbFxSVa9pwyMzOtQkJCPGXXh7Fjxy5/8803f5NdV6dPn24lGwAAAAAAgKGV6OGsSpUqD+3s7FJl18WNGze8ZNPW3LlzZ+jrYwWa3DrT93vOclqxYsWYatWqRciui6CgoEb6/lopAAAAAABAQUr0cFaxYsUY2XQVHh7uLps2vL29r0+bNu172XWlyXBmiPecveDk5JS4ePHiSbLrIisry/Ls2bPNZQcAAAAAADCkEj2cOTk5Jcqmq8IOZ7NmzZqtUqnUsutKk+HMkDfOFEVRevfuvbNLly4HZNfFpUuXXpYNAAAAAADAkEr0cObo6Jgkm64iIiKqyaapevXqBffv33+r7IWhyXBmyBtnL3z22WdfyKaLO3fuvCQbAAAAAACAIZnccObm5hYpm670eeOsMO/gmjlz5lcWFhbZshdGvXr1gi0tLbNkz+nu3bseycnJDrLrU7Nmzc61adPmpOzaYjgDAAAAAABFzeSGs1q1at22sbFJl10Xtra2abLpIjU11S47O1unfywdHByS+/Tps0P2wrKzs0utXbv2Ldlzys7OtggODq4nu75Nnjx5kWzaYjgDAAAAAABFTaexpzhZWlpm1alT56bsutDXbaukpCRH2TTl5+d3Ql9f9pSM5XHNrl277i9btmyc7NqIiIiolp6ebiM7AAAAAACAoZjccKb89wuUsumiMI9X5lSYl/rr6+X5ufHx8bkim2ToDwQoiqLY2Nik9+vXb5vs2sjOzraIiopylR0AAAAAAMBQTHI48/LyuiGbLvQ1nBXmIwOGHM6M5caZoihKz54998imrcTERCfZAAAAAAAADIXhTA9sbW3TdHnvWvny5Z/WrFkzTHZ90WQ4K4obZ4qiKC1btgwo7AcQGM4AAAAAAEBRUqnVeT9luGTJkonG+HhcbGxsuVWrVo2WXVtOTk6J48ePXya7LlasWDEmPj7eWfb8uLi4RA8bNmy97Pq0cOHCKQW9G2zKlCkLdRn+tPXzzz+PePz4cSXZNTVw4MDNNWrUuCc7AAD5WbVq1ejY2Nhysuc0derUBdbW1hmyAwAA4B8xMTEV16xZM1L2nNzc3CKHDBmyQXZd/Pjjj+P0deGpIDNmzJg7Z86cT2RXChrOfH19LwQGBjaRHQAAwJw4OzvHa/tfgAEAAMA8+Pv7r1u7du1bsium+qgmAAAAAAAAYGgMZwAAAAAAAEAuGM4AAAAAAACAXOT7jrN27dodu3z5ckPZjcWzZ8/KZGZmWsmuDVtb2zQnJ6dE2XWh7Z+PjY1NeqlSpRJk1ye1Wq0q6IXIFhYW2WXLlo2TXd+ysrIsC/P+mNKlSz/nxc0AAG3Fx8c7Z2VlWcqek7u7ezhfbwYAAMibJv+Z3srKKrNMmTLPZNdFXFxc2ezs7CK58DVy5Mg1q1evflt2paDhzNh98sknc+bOnTtDdm14eXnduH79urfsunj//fe/+/7776fJnpeWLVsGnD59upXs+ubi4hL94MGDqrLn9PTp0/LlypWLlV2f7ty581KtWrVuy66pCxcu+DZp0iRQdgAA8uPp6RkSGhpaV/acYmJiKlaoUOGJ7AAAAPjHtWvX6jdo0OCq7Dm1aNHiTEBAQEvZdeHm5hYZFRXlKrshrFq1avSoUaN+kl0x9Uc1BwwYsEU2bd24ccPr4cOHVWTXRdu2bY/Llp+bN2/Wkc0QCvoXtvLf/weQTd/s7OxSZdOGm5tbpGwAAAAAAACGYtLDWcOGDS+/8sorf8uurWPHjrWTTRdt27Y9Xr58+aey5+Xx48eVoqOjXWTXN02GM33dustPQkJCKdk05eDgkFy5cuVHsgMAAAAAABiKSQ9niqIoeV2l08bRo0fby6YLOzu7VG3/fC5evNhYNn3TZDgrihtnz58/Ly2bpmrUqHFPNgAAAAAAAEMy+eFs8ODBGx0dHZNk14a+bpwpiqKMGzfuR0tLyyzZ8/L77793l03fNBnOjP3GWWHejQYAAAAAAKALkx/OSpUqlTBo0KBNsmsjIiKiWlBQUCPZdVG9evX7PXv23CN7XrZs2TIgLS3NVnZ98vLyulHQmFcUw1lhbpw1bdr0vGwAAAAAAACGZPLDmaIoyujRo1fJpq01a9aMlE1XEydOXCJbXuLi4sru2rWrl+z6ZGdnl1rQja0nT55UePToUWXZ9enZs2dlZNNUs2bNzskGAAAAAABgSGYxnDVr1uxc8+bNz8qujQ0bNgzR180vPz+/E40aNQqSPS+fffbZF5mZmVay65Mmj2sa+j1nt2/friWbJiwsLLK5cQYAAAAAAIqaWQxniqIos2fPniWbNmJjY8vt3Lmzt+y6+uGHH96TLS+hoaF1V6xYMUZ2fTKG4Sw4OLiebJpo2LDh5dKlSz+XHQAAAAAAwJDMZjhr167dsTZt2pyUXRv6fFyzVatWp/39/dfJnpeZM2d+FRYWVlN2ffHx8bkim2To95zduHHDSzZNdOvWbZ9sAAAAAAAAhmY2w5mih1tnR44c6XDx4sXGsutq/vz508uWLRsne27i4+Od+/btuz0lJcVenulDcd84y8jIsNb1Uc3u3bv/LhsAAAAAAIChmdVw1qpVq9MdO3Y8LLs2Pv300y9l01WlSpUez5kz5xPZ8xIUFNTI399/nSHed1azZs0wR0fHJNlz0vVGmCZu375dS5e/rsqVKz/i/WYAAAAAAKA4mNVwpujh1tm+ffu6nTt3rpnsuhozZswKbb4IuW3btn6DBw/eqMvIlB+VSqX29va+LntOz549KxMREVFNdn04depUa9k0MWjQoE0qlUotOwAAAAAAgKGZ3XDWtGnT8yNGjPhZdm3o89aZhYVF9vbt2/u6ublFyrO8bNu2rV/Pnj33PHnypII8KwxNHtc01HvODhw40EU2Tbz99turZQMAAAAAACgKZjecKYqiLFiwYGrVqlUfyK6pw4cPdzxy5EgH2XXl6uoatX///q7afBnywIEDXXx8fK4cPXq0vTzTlSbDmSHec5aenm5z7NixdrIXxNfX94Imf84AAAAAAACGYJbDmbOzc/x//vOfd2XXxjvvvLMyKSnJUXZdNWjQ4OrWrVv7W1lZZcqzvDx48KBqx44dD0+fPn1+enq6jTzXliYjlCFunAUEBLRMTEx0kr0g77zzzkrZAAAAAAAAiopZDmeKoihvvPHG7oEDB26WXVP37t2rMWPGjLmyF0bHjh0PazvoqdVq1Xfffff+q6+++ldoaGhdea4NTYYzQ9w40+UxzapVqz7w9/dfJzsAAAAAAEBRMdvhTFEUZcmSJRMrVKjwRHZNLV26dMLZs2eby14Yo0aN+mnBggVTtX3h/aVLl15u3LjxxaVLl05Qq9Uqea6JihUrxlSuXPmR7DnduHHDS9f//bnJyMiw3rBhwxDZCzJlypSFtra2abIDAAAAAAAUFbMezipWrBizfPnysbJrKjs722LEiBE/JyQklJJnhTFlypSFW7du7W9vb58iz/KTnJzsMHHixCUdO3Y8HBkZ6SbPNeHj43NFtpySk5Md7t696yG7rjZv3jzwwYMHVWXPj7Ozc/zYsWOXyw4AAAAAAFCUzHo4UxRF6du37/bp06fPl11ToaGhdYcOHfqrPm9hKf/98zpz5kyLevXqBcuzghw9erR9w4YNL+vyPrKiflxz0aJFk2UryEcfffRNqVKlEmQHAAAAAAAoSmY/nCmKonz99dcfd+jQ4YjsmtqzZ0/PmTNnfiV7Yb388suXAgMDm0yYMGGphYVFtjzPT2xsbLnevXvvlL0gmgxnugxyuTlz5kyLwMDAJrLnp0aNGvcmT568SHYAAAAAAICiViKGM0tLy6xNmzYN8vDwuCvPNDV37twZmzdvHih7Ydnb26csWbJk4uXLlxv26NFjrzzPz61bt2pr+7VKTYYzfd04W7BgwVTZCvLNN998xLvNAAAAAACAMSgRw5miKEq5cuVid+7c2dvBwSFZnmlqxIgRP584ccJPdn2oX7/+tT179vQMDAxsMn78+GVly5aNk7+RWrRoccbJySlR9vx4eXndKOh2mz5unB09erT9jh07+sien9atW58qzJdQAQAAAAAA9KnEDGeKoigNGza8/MsvvwwvaDjKS0pKin337t1//+OPP16XZ/ry4suZDx48qHr8+PG2c+bM+aRHjx57fXx8rri6ukbZ29unuLi4RI8ZM2bF7t2735B/fEHs7e1TatWqdVv2nEJCQjyzsrIsZddUamqq3bvvvvsf2fPj6OiYtGbNmpGyAwAAAAAAFJcSNZwpiqL0799/66pVq0arVCq1PNNEcnKyQ7du3fadPHmyjTzTJ1tb2zQ/P78TM2bMmLtnz56ely9fbhgZGemWnJzsEBUV5bp8+fKx5cuXfyr/OE0U9LhmWlqa7e3bt2vJrqnZs2fP0vaP/+abbz566aWX7sgOAAAAAABQXErccKYoijJy5Mg1S5cunSC7pl6MZ8eOHWsnz0xBQcOZUoj3nF2/ft17/vz502XPT9u2bY+PHz9+mewAAAAAAADFqUQOZ4qiKOPGjftRl5fXv5CUlOTYuXPng8uWLRsvz4ydJsOZLu85i4uLKztgwIAtGRkZ1vIsLy4uLtG//fbbm7reAAQAAAAAADCUEjucKYqiTJkyZeGcOXM+kV1TmZmZVhMmTFg6duzY5dqMRcVNk+FM2xtnaWlptr169dp148YNL3mWFysrq8zNmzcPrFy58iN5BgAAAAAAUNxK9HCmKIoyY8aMud999937un4wQFEUZcWKFWPat29/9OHDh1XkmTF66aWX7hT0dVFthjO1Wq0aNmzY+lOnTrWWZ/mZP3/+9JYtWwbIDgAAAAAAYAxK/HCmKIoybdq077dv3963oDEpP6dOnWrt7e19/bfffntTnhkbCwuLbG9v7+uy53Tr1q3a6enpNrLnZurUqQu2bt3aX/b8TJo0afHkyZMXyQ4AAAAAAGAsGM7+q1evXrtOnTrV2sXFJVqeaSo2NrbckCFDNvTp02fH48ePK8lzY1LQ45qZmZlWoaGhdWXPKTk52WHo0KG/Llq0aLI8y8+gQYM2LVy4cIrsAAAAAAAAxoThLIcmTZoEnjt3rlnDhg0vyzNt7Ny5s7eXl9eNn376aVRWVpalPDcGBQ1nSgEfCLhz585LzZs3P7thw4Yh8iw/nTp1OrR27dq3+BgAAAAAAAAwdgxngpubW2RAQEDLAQMGbJFn2nj69Gn50aNHr/Lx8bmye/fuN+R5cdNkOMvrPWe///57d19f3wtXrlzxkWf56dmz557du3e/YWNjky7PAAAAAAAAjA3DWS6cnJwSN2/ePHDt2rVvlSpVKkGea+PGjRtevXr12tWqVavT2r4835A0Gc7kjbOnT5+WHzt27PKePXvuiY+Pd855VpABAwZs2bZtWz9bW9s0eQYAAAAAAGCMGM7y4e/vv+7y5csNW7RocUaeaSsgIKBlmzZtTjZu3Pjizz//PCI1NdVO/qYoVapU6XGlSpUey57TixtnSUlJjgsXLpxSu3btWytWrBijVqtV8rf5mTBhwtLffvvtTWtr6wx5BgAAAAAAYKwYzgrg4eFx9+TJk21mz549y8rKKlOea+vSpUsvjxw5ck21atUiPvroo28KegG/IRV06ywsLKzmrFmzZru7u4dPnTp1QVxcXFn5m/xYW1tnrFy58p0lS5ZMtLS0zJLnAAAAAAAAxozhTAOWlpZZM2fO/Or8+fNNW7ZsGSDPdfHkyZMK33777Yeenp4hXl5eN2bOnPnVxYsXG8vfGVJBw1l2drbFV199NfPp06fl5VlBKleu/Ojo0aPtR48evUqeAQAAAAAAmAKGMy28/PLLl06fPt1q06ZNg6pXr35fnusqODi43pw5cz5p0qRJoIeHx92RI0euWbVq1ejr1697a/tYpDZ8fHyuyKYPvXr12nXt2rX6rVu3PiXPAAAAAAAATIVKrVbLBg2kpKTYf/fdd+9/++23HyYlJTnKc31xdnaOf/XVV/+qV69ecM2aNcM8PDzuvvh7Ozu7VPn73GRlZVlGRERUCwkJ8cz5txs3bnjFxMRUlL/XlZOTU+LChQunjBo16id5BgBAcfH09Awp6NUIMTExFStUqPBEdgAAAPzj2rVr9Qt6cq1FixZnAgICWsquCzc3t8ioqChX2Q1h1apVo/PaMhjOCikqKsr1iy+++GzdunX+aWlptvLcUFQqldrJySnR0dExKeffW1lZZSYkJJR6/vx56YSEhFIJCQmlkpOTHeQfr29DhgzZMG/evA9cXFyi5RkAAMWJ4QwAAKDwSupwxqOaheTq6hq1cuXKd+7du1fj448//trZ2Tle/sYQ1Gq1KiEhodTDhw+r3L59u9bly5cbnjlzpsXJkyfbXLx4sfHt27drPXr0qLKhRzNfX98LZ86cafHrr78OZTQDAAAAAADmhOFMT6pUqfJw7ty5MyIiIqp9//3306pVqxYhf2NOWrRocWb//v1d//7771dee+21P+U5AAAAAACAqWM40zMnJ6fEqVOnLrhz585LW7ZsGdCrV69dtra2afJ3psjGxia9b9++2//444/XAwICWnbp0uWA/A0AAAAAAIC5YDgzEGtr64z+/ftv3blzZ++HDx9W+emnn0a1a9fumIWFRbb8rbGrXbv2rcWLF0+Kjo522bZtW782bdqclL8BAAAAAAAwN/l+HOD111//IygoqJHs0J1arVZlZGRYZ2ZmWmVmZlqp1WqV/I2xsbW1TdP0C54AABibhISEUtnZ2fn+l4Vubm6RCQkJpWQHAADAP7KysiwTExOdZM/J0tIyy8nJKVF2XWjy7+H0ZeTIkWtWr179tuxKQcOZr6/vhcDAwCayAwAAmBNnZ+f4+Ph4Z9kBAABg/vz9/detXbv2LdkVHtUEAAAAAAAAcsdwBgAAAAAAAOSC4QwAAAAAAADIRb7vOFuyZMnEqKgoV9lhXjIzM60WLFgwNb8PFXTs2PHwyy+/fEl2AACM3fnz55umpKTYy55T69atT6lUqrz/TREAAEAJl5SU5HjhwgVf2XMqXbr0c31tB2fPnm2enp5uI7shvPPOOytHjBjxs+xKQcMZSo769etfu379urfsL4wfP37Z0qVLJ8gOAAAAAABgrnhUE4qiKEpBi3B+oxoAAAAAAIA5YjiDojCcAQAAAAAA/AvDGRRFg+EsJiam4uPHjyvJDgAAAAAAYK4YzqAoiqI0atQoSDaJW2cAAAAAAKAkYTiDoiiKUrZs2Th3d/dw2XNiOAMAAAAAACUJwxn+T0GPazKcAQAAAACAkoThDP+noOHs2rVr9WUDAAAAAAAwVwxn+D8FDWfcOAMAAAAAACUJwxn+T0EfCIiLiyv74MGDqrIDAAAAAACYI4Yz/J9q1apFlC5d+rnsOfG4JgAAAAAAKCkYzvA/vLy8bsiWE49rAgAAAACAkoLhDP/D29v7umw53bhxw0s2AAAAAAAAc8Rwhv/BcAYAAAAAAPAPhjP8D4YzAAAAAACAfzCc4X8UNJzxZU0AAAAAAFBSMJzhf7i6ukY5OzvHy54Tt84AAAAAAEBJwHCGfyno1hnDGQAAAAAAKAkYzvAvDGcAAAAAAAAMZ8hFQcNZcHBwPdkAAAAAAADMDcMZ/qWg4ezWrVu1ZQMAAAAAADA3DGf4l1q1at2WLacHDx5UTUlJsZcdAAAAAADAnDCc4V/c3NwiraysMmV/Qa1Wq8LCwmrKDgAAAAAAYE4YzvAvlpaWWW5ubpGy53Tnzp2XZAMAAAAAADAnKrVaLRv05PHjx5VCQ0PrPnr0qHJCQkKp1NRUO3t7+xQnJ6fESpUqPa5du/atqlWrPpB/nDHw8/M78ccff7wu+wsLFiyYOmXKlIWyAwAAAAAAmAuGMz2Ki4sru3Pnzt6HDh3qdOLECb+YmJiK8jdS6dKln7/22mt/+vn5nXjjjTd2161bN1T+pjgMHz78l7Vr174l+wvjx49ftnTp0gmyAwAAAAAAmAse1dSD4ODgesOGDVvv4uIS/fbbb6/esmXLAE1GM0VRlOfPn5c+ePBg5w8//PBbT0/PkFdfffWv9evXD1Or1Sr526JUo0aNe7LlxKOaAAAAAADA3DGcFUJCQkKp999//7uGDRte/vXXX4empqbayd9o69y5c838/f3X+fr6XsjvUUlDK2g4i4yMdJMNAAAAAADAnDCc6WjDhg1D6tatG/r9999Py8jIsJbnhXXx4sXGLx7fvHfvXg15bmju7u7hsuX08OHDKrIBAAAAAACYE95xpiW1Wq16//33v1uwYMFUeWYolSpVerx3794eTZs2PS/PDOXu3bseNWvWDJP9BZVKpU5PT7exsrLKlGcAAAAAAADmgBtnWsjKyrJ8++23VxflaKb89+ucfn5+J/bs2dNTnhlKtWrVIiwtLbNkf0GtVqseP35cSXYAAAAAAABzwXCmofT0dJv+/ftv/fnnn0fIs6KQnJzs0Lt3752rV69+W54ZgpWVVWaZMmWeyZ4Tj2sCAAAAAABzxnCmoY8++uibnTt39pa9KGVnZ1u8++67//nzzz9fk2eGUKpUqQTZcmI4AwAAAAAA5ozhTAOHDh3qtGjRosmyF4eMjAzrAQMGbCmKxyQLGs5iYmIqygYAAAAAAGAuGM4KEBMTU3H48OG/qNVqlTwrLlFRUa6DBw/emJ2dbdB//pycnBJlyyk5OdlBNgAAAAAAAHNh0OHFHLz77rv/McZHEo8fP972t99+e1N2fSroxllKSoq9bAAAAAAAAOaC4Swf165dq79jx44+shuLr776aqYhb50VNJxx4wwAAAAAAJgzg40u5mDevHkfGNMjmlJoaGjdTZs2DZJdXwp6VJMbZwAAAAAAwJwxnOXh/v371Tdu3DhYdmPz1VdfzZRNXwq6ccZwBgAAAAAAzBnDWR6WLFkyMTMz00p2YxMcHFzvxo0bXrLrg4ODQ7JsOaWlpdnKBgAAAAAAYC4YzvKwZ8+enrIZqwMHDnSRTR8KGsZsbGzSZQMAAAAAADAXDGe5iIqKcr1582Yd2Y3VwYMHO8umDwU9imlra5smGwAAAAAAgLlgOMvFsWPH2slmzE6dOtW6oNthukhNTbWTLSc7O7tU2QAAAAAAAMwFw1kujh8/3lY2Y5aenm4THR3tInthPX/+vLRsOTGcAQAAAAAAc8Zwlovz5883lc3YPXz4sIpshRUVFeUqW04FfXUTAAAAAADAlDGcCWq1WnX37l0P2Y2dIYazyMhIN9lyqlq16gPZAAAAAAAAzAXDmfDo0aPKBb3byxjFxMRUlK0wMjIyrB8/flxJ9pwYzgAAAAAAgDljOBMKeq+XsbK2ts6QrTBCQ0PrZmdn5/uvD4YzAAAAAABgzvIdRkqilJQUe9lMgZOTU6JshREUFNRINqlKlSoPZQMAAAAAADAXDGeCSqVSy2YK9H376/Llyw1ly8nd3T2cr2oCAAAAAABzxnAmODo6JslmCl566aU7shXGmTNnWsiWU8OGDS/LBgAAAAAAYE4YzoQyZco8k83YValS5aE+b5zFxsaWO3fuXDPZc2I4AwAAAAAA5o7hTKhQocITfb8vzNC6du26X7bCOHToUKeCPgzAcAYAAAAAAMxdvuNISaXvxx4NTd/D2bZt2/rJJjVp0iRQNgAAAAAAAHPCcJaLRo0aBclmrKytrTM6dOhwRHZdPXr0qPLevXt7yJ5TnTp1btaoUeOe7AAAAAAAAOaE4SwXrVq1Oi2bsXrjjTd2ly5d+rnsulq7du1bGRkZ1rLnpO8bbgAAAAAAAMZIpVarZSvx7ty581KtWrVuy25sLCwssq9cueLj7e19XZ7pIjU11a5WrVq3o6KiXOVZTocPH+6oz1tuAAAAAAAAxogbZ7l46aWX7tSvX/+a7MZm4MCBm/U1mimKovznP/95t6DRzNHRMal169anZAcAAAAAADA3DGd5GDBgwBbZjIm1tXXG559//rnsuoqPj3f++uuvP5ZdGjRo0CZbW9s02QEAAAAAAMwNw1kehg4d+quFhUW27MZi3rx5H9SpU+em7LqaMGHC0piYmIqySxMmTFgqGwAAAAAAgDliOMuDh4fH3Z49e+6R3Rj0799/6+TJkxfJrqsdO3b02bBhwxDZpRYtWpwxpS+OAgAAAAAAFAbDWT6mTZv2vWzFzdPTM2T16tVvy66rq1evNhgxYsTPsueG22YAAAAAAKAk4auaBejatev+AwcOdJG9OPj4+Fw5ePBg56pVqz6QZ7p48OBB1WbNmp2LiIioJs8kb2/v60FBQY2srKwy5RkAAAAAAIA54sZZARYsWDDVGMaiVq1anT516lRrfY1m9+7dq/H666//oclopiiKsmzZsvHG8I8DAAAAAABAUWE4K4Cnp2fI1KlTF8helEaMGPHz4cOHO5YpU+aZPNPFlStXfF577bU/b968WUee5Wbw4MEb27Rpc1J2AAAAAAAAc8ajmhpIT0+3efXVV/+6dOnSy/LMkGrWrBm2YsWKMe3btz8qz3S1bNmy8dOnT5+fkpJiL89yU6pUqYTQ0NC6+rrpBgAAAAAAYCq4caYBGxub9I0bNw52dHRMkmeGULFixZjPPvvsi2vXrtXX12h2+/btWl27dt0/YcKEpZqOZiqVSr1mzZqRjGYAAAAAAKAkYjjTUN26dUM3b9480NLSMkue6YuPj8+Vn376adT9+/erf/7555/b29unyN9o69GjR5UnTJiw1MvL64a2HzmYM2fOJ/369dsmOwAAAAAAQEnAo5paWrly5TtjxoxZIbsuateufat58+Zn/fz8TrRt2/Z49erV78vf6CogIKDljz/+OG779u1909PTbeR5QYYPH/7Lzz//PEJ2AAAAAACAkoLhTAeLFi2aPHXq1AVqtVolzzRVsWLFmFu3btXW1wv/k5OTHQICAlru3bu3x969e3uEh4e7y99oqkuXLgd27drVy8bGJl2eAQAAAAAAlBQMZzpav379sJEjR67JzMy0kmeacnBwSK5bt26ot7f39Xr16gW7u7uHV69e/b6rq2uUk5NToqOjY5Kjo2NSVlaWZUpKin1qaqpdQkJCqcjISLeIiIhqERER1a5evdrg4sWLjW/evFknKyvLUv7f0Nb48eOXLV68eJIhH0kFAAAAAAAwBQxnhXD06NH2Q4YM2fD48eNK8kxfVCqVujA32zRlaWmZtXjx4knjx49fJs8AAAAAAABKIoazQnr48GGVYcOGrT969Gh7eWYqqlevfn/VqlWjO3bseFieAQAAAAAAlFR8VbOQqlSp8vDQoUOdli1bNr5cuXKx8tyYVa5c+dHixYsn3bx5sw6jGQAAAAAAwP/ixpkexcbGlvv000+/XL58+Vh9vG/MUMqWLRv3wQcfzJs4ceISR0fHJHkOAAAAAAAAhjODuHfvXo1FixZNXr169duJiYlO8ry4vPTSS3feeuutte+9994P+vqaJwAAAAAAgLliODOg+Ph459WrV7+9efPmgX///fcr8rwoVKhQ4cnAgQM3Dx069NdXX331L3kOAAAAAACA3DGcFZHw8HD3bdu29du3b1+38+fPN01KSnKUv9EXd3f38DZt2pwcMGDAlk6dOh2ysrLKlL8BAAAAAABA/hjOikFWVpbl1atXG5w9e7b5xYsXG4eFhdUMCwurGRERUU2bd6NZW1tnVKtWLcLb2/u6t7f3dR8fnystWrQ4U7169fvytwAAAAAAANAOw5kRyczMtIqMjHSLj493Tk5Odnjxt7S0NFsbG5t0Ozu7VDs7u9Ry5crFVq1a9UH58uWfqlQq/gkEAAAAAAAwAIYzAAAAAAAAIBcWMgAAAAAAAABgOAMAAAAAAAByxXAGAAAAAAAA5ILhDAAAAAAAAMgFwxkAAAAAAACQC4YzAAAAAAAAIBf/D3ui3BAXXZieAAAAAElFTkSuQmCC;" vertex="1" parent="1">
          <mxGeometry x="1010" y="30" width="1230" height="360" as="geometry" />
        </mxCell>
        <mxCell id="IfGX-FV8qgjRQqrxb4GX-2" value="A" style="text;html=1;align=center;verticalAlign=middle;whiteSpace=wrap;rounded=0;fontSize=50;fontStyle=1;fontColor=#FF8000;labelBackgroundColor=none;fillColor=none;gradientColor=none;shadow=0;glass=0;" vertex="1" parent="1">
          <mxGeometry x="1320" y="210" width="40" height="40" as="geometry" />
        </mxCell>
        <mxCell id="IfGX-FV8qgjRQqrxb4GX-6" value="G" style="text;html=1;align=center;verticalAlign=middle;whiteSpace=wrap;rounded=0;fontSize=50;fontStyle=1;fontColor=#FF8000;labelBackgroundColor=none;fillColor=default;gradientColor=none;shadow=0;glass=0;" vertex="1" parent="1">
          <mxGeometry x="1790" y="240" width="40" height="40" as="geometry" />
        </mxCell>
        <mxCell id="IfGX-FV8qgjRQqrxb4GX-10" value="B" style="text;html=1;align=center;verticalAlign=middle;whiteSpace=wrap;rounded=0;fontSize=50;fontStyle=1;fontColor=#FF8000;labelBackgroundColor=none;fillColor=default;gradientColor=none;shadow=0;glass=0;" vertex="1" parent="1">
          <mxGeometry x="1870" y="190" width="40" height="40" as="geometry" />
        </mxCell>
        <mxCell id="IfGX-FV8qgjRQqrxb4GX-11" value="C" style="text;html=1;align=center;verticalAlign=middle;whiteSpace=wrap;rounded=0;fontSize=50;fontStyle=1;fontColor=#FF8000;labelBackgroundColor=none;fillColor=none;gradientColor=none;shadow=0;glass=0;" vertex="1" parent="1">
          <mxGeometry x="1400" y="160" width="40" height="40" as="geometry" />
        </mxCell>
        <mxCell id="IfGX-FV8qgjRQqrxb4GX-12" value="D" style="text;html=1;align=center;verticalAlign=middle;whiteSpace=wrap;rounded=0;fontSize=50;fontStyle=1;fontColor=#FF8000;labelBackgroundColor=none;fillColor=default;gradientColor=none;shadow=0;glass=0;" vertex="1" parent="1">
          <mxGeometry x="1950" y="140" width="40" height="40" as="geometry" />
        </mxCell>
        <mxCell id="IfGX-FV8qgjRQqrxb4GX-13" value="E" style="text;html=1;align=center;verticalAlign=middle;whiteSpace=wrap;rounded=0;fontSize=50;fontStyle=1;fontColor=#FF8000;labelBackgroundColor=none;fillColor=none;gradientColor=none;shadow=0;glass=0;" vertex="1" parent="1">
          <mxGeometry x="1480" y="110" width="40" height="40" as="geometry" />
        </mxCell>
        <mxCell id="IfGX-FV8qgjRQqrxb4GX-16" value="F" style="text;html=1;align=center;verticalAlign=middle;whiteSpace=wrap;rounded=0;fontSize=50;fontStyle=1;fontColor=#FF8000;labelBackgroundColor=none;fillColor=none;gradientColor=none;shadow=0;glass=0;" vertex="1" parent="1">
          <mxGeometry x="1240" y="260" width="40" height="40" as="geometry" />
        </mxCell>
        <mxCell id="IfGX-FV8qgjRQqrxb4GX-17" value="E" style="text;html=1;align=center;verticalAlign=middle;whiteSpace=wrap;rounded=0;fontSize=50;fontStyle=1;fontColor=#FF8000;labelBackgroundColor=none;fillColor=default;gradientColor=none;shadow=0;glass=0;" vertex="1" parent="1">
          <mxGeometry x="1710" y="290" width="40" height="40" as="geometry" />
        </mxCell>
        <mxCell id="IfGX-FV8qgjRQqrxb4GX-22" value="F" style="text;html=1;align=center;verticalAlign=middle;whiteSpace=wrap;rounded=0;fontSize=50;fontStyle=1;fontColor=#FF8000;labelBackgroundColor=none;fillColor=default;gradientColor=none;shadow=0;glass=0;" vertex="1" parent="1">
          <mxGeometry x="2030" y="90" width="40" height="40" as="geometry" />
        </mxCell>
      </root>
    </mxGraphModel>
  </diagram>
</mxfile>
